<svg width="42" height="54" viewBox="0 0 42 54" fill="none" xmlns="http://www.w3.org/2000/svg">
<g id="Group 181">
<path id="Rectangle 105" d="M41.5 41.1404L41.5 20.6404C41.5 9.31857 32.3219 0.140414 21 0.140413C9.67818 0.140411 0.500031 9.31857 0.500029 20.6404L0.500027 41.1404L41.5 41.1404Z" fill="#8759F2"/>
<path id="Rectangle 103" d="M9.13152 41.1403C9.13152 34.3869 14.6062 28.9122 21.3596 28.9122C28.113 28.9122 33.5876 34.3869 33.5876 41.1403L9.13152 41.1403Z" fill="#FF3E80"/>
<path id="Rectangle 104" d="M9.13153 41.1404C9.13153 47.8937 14.6062 53.3684 21.3596 53.3684C28.113 53.3684 33.5876 47.8937 33.5876 41.1403L9.13153 41.1404Z" fill="#FFC300"/>
<path id="Rectangle 99" d="M21 24.5964C24.3767 24.5964 27.114 21.8591 27.114 18.4824C27.114 15.1057 24.3767 12.3684 21 12.3684C17.6233 12.3684 14.886 15.1057 14.886 18.4824C14.886 21.8591 17.6233 24.5964 21 24.5964Z" fill="#F5F5F7"/>
</g>
</svg>
